# xmcd
# 
# Track frame offsets:
#     150
#     24086
#     35487
#     72294
#     86111
#     103627
#     120846
#     142154
#     156292
#     174246
#     193699
#     207691
#     220124
#     247326
# 
# Disc length: 3422
# 
# Revision: 1
# Processed by: cddbd v1.5.2PL0 Copyright (c) Steve Scherf et al.
# Submitted via: fre:ac v1.0.27
# 
DISCID=ca0d5c0e
DTITLE=Artistes variés - 75 ans 75 chansons 2000-2001 [CD 5)
DYEAR=2011
DGENRE=Compilation
TTITLE0=La désise (Daniel Boucher)
TTITLE1=C'est ça qui est ça (Martin Léon)
TTITLE2=Café Robinson (Marie-Jo Thério)
TTITLE3=Je marche à toi (Chloé Ste-Marie)
TTITLE4=Deux par deux rassemblés (Pierre Lapointe)
TTITLE5=Belleville Rendez-vous (Ben Charest)
TTITLE6=Grande brune (Yann Perreau)
TTITLE7=Je veux tout (Ariane Moffatt)
TTITLE8=La marche (Karkwa)
TTITLE9=Le déni de l'évidence (Mes Aïeux)
TTITLE10=Toutes les chances (Mara Tremblay)
TTITLE11=Comme des enfants (Coeur de pirate)
TTITLE12=La voix humaine (Catherine Major)
TTITLE13=À tes côtés (Stéphanie Lapointe)
EXTD=
EXTT0=
EXTT1=
EXTT2=
EXTT3=
EXTT4=
EXTT5=
EXTT6=
EXTT7=
EXTT8=
EXTT9=
EXTT10=
EXTT11=
EXTT12=
EXTT13=
PLAYORDER=
